<?xml version="1.0" encoding="UTF-8"?>
<svg id="Camada_1" xmlns="http://www.w3.org/2000/svg" version="1.1" viewBox="0 0 595.28 841.89">
  <!-- Generator: Adobe Illustrator 30.3.0, SVG Export Plug-In . SVG Version: 2.1.3 Build 182)  -->
  <defs>
    <style>
      .st0 {
        fill: none;
        stroke: #4851ea;
        stroke-linecap: round;
        stroke-linejoin: round;
        stroke-width: 31.93px;
      }

      .st1 {
        fill: #4851ea;
      }
    </style>
  </defs>
  <g>
    <path class="st0" d="M134.48,336.37c-6.33-3.99-21.26-12.08-40.55-10.39-7.07.62-20.69,1.81-30.08,12-9.33,10.14-11.05,25.46-8.7,36.55,8.83,41.69,79.02,41.09,84.82,79.56,1.74,11.54-2.44,25.31-11.02,34.2-9.86,10.21-23.21,11.45-31.68,12.24-21.72,2.04-38.92-6.61-46.98-11.46"/>
    <path class="st0" d="M205.04,329.05c0,7.91.01,24.23,0,45-.04,64.35-.2,71.81,5.28,83.04,10.07,20.61,33.91,43.11,64.44,43.44,20.41.22,40.84-9.5,53.16-25.2,13-16.57,14.39-36.52,14.66-40.38.42-6.12-.19-8.89-.26-27.3-.04-10.31.11-18.8.26-24.51"/>
    <path class="st0" d="M413.67,504.24v-113.27c0-35.94,29.13-65.07,65.07-65.07"/>
    <line class="st0" x1="543.82" y1="325.9" x2="543.82" y2="504.24"/>
  </g>
  <circle class="st1" cx="342.73" cy="334.61" r="21.99"/>
</svg>