<?xml version="1.0" encoding="UTF-8"?>
<svg id="Camada_2" data-name="Camada 2" xmlns="http://www.w3.org/2000/svg" viewBox="0 0 141.07 57.09">
  <defs>
    <style>
      .cls-1 {
        fill: #e6f4fd;
      }
    </style>
  </defs>
  <g id="Camada_1-2" data-name="Camada 1">
    <path class="cls-1" d="M48.39,20.63c.1,4.08-.2,9.02.18,13.93.33,4.31,1.84,8.15,5.28,11.06,6.1,5.16,19.25,4.69,22.81-6.96.6-1.96.87-3.97.89-6,.04-4.04,0-8.07.02-12.11.01-2.99,2.52-4.88,5.44-4.13,1.57.41,2.89,2.01,2.9,3.65.02,4.49.12,8.99-.04,13.48-.17,5.03-1.5,9.78-4.49,13.95-3.85,5.38-9.18,8.33-15.79,9-6.49.65-12.38-.87-17.4-5.1-4.21-3.54-6.49-8.17-7.55-13.45-.72-3.57-.58-7.17-.59-10.77,0-7.36-.01-14.73,0-22.09,0-2.37,2.02-4.28,4.37-4.19,2.14.08,3.96,1.98,3.98,4.2.02,3,0,5.99,0,8.99v6.55"/>
    <path class="cls-1" d="M12.97,55.73c-3.92-.1-7.8-1.24-11.36-3.66-1.43-.97-1.91-2.57-1.42-4.39.56-2.1,1.76-3.24,3.35-3.18.61.02,1.16.28,1.68.63,1.86,1.24,3.79,2.32,5.93,2.76,1.93.4,3.83.29,5.68-.49,3.92-1.64,5.25-6.61,2.84-10.53-1.01-1.63-2.33-2.84-3.85-3.77-2.53-1.55-5.11-3.02-7.62-4.62-3.51-2.25-6-5.48-6.92-10.09-.58-2.92-.55-5.85.22-8.72C2.75,4.99,5.73,2.34,9.65,1,15.1-.87,20.32-.15,25.15,3.42c1.12.82,1.66,2.04,1.45,3.58-.22,1.6-.85,2.9-2.31,3.39-.96.33-1.88.15-2.72-.5-2.45-1.89-5.15-2.59-8.07-2.28-1.09.12-2.13.45-3.08,1.08-2.53,1.67-3.27,5.99-1.54,9.06.84,1.5,1.97,2.66,3.27,3.62,2.86,2.12,5.92,3.87,8.83,5.89,2.76,1.92,5.05,4.38,6.35,7.85,2.97,7.87-.77,16.95-8.02,19.55-2,.72-4.05,1.04-6.34,1.07"/>
    <path class="cls-1" d="M99.21,38.48c0-4.92-.01-9.85,0-14.77.02-4.7.81-9.18,2.98-13.23,2.79-5.2,6.91-8.15,12.09-9.22,1.22-.25,2.45-.45,3.69-.44,1.43.01,2.75,1.06,3.26,2.55.49,1.45.18,3.1-.83,4.2-.72.8-1.6,1.11-2.6,1.12-2.14.03-4.17.56-6,1.87-2.84,2.03-4.25,5.11-4.91,8.76-.47,2.61-.37,5.25-.37,7.89-.01,9.11,0,18.23-.01,27.34,0,1.59-.47,2.12-1.88,2.12-1.17,0-2.34,0-3.52,0-1.38,0-1.89-.58-1.89-2.13,0-5.36,0-10.71,0-16.07h-.02Z"/>
    <path class="cls-1" d="M141.05,30.27c0,8.25-.02,16.5.02,24.75,0,1.25-.61,2.15-1.81,2.07-1.3-.09-2.61-.02-3.91-.02-.9,0-1.45-.59-1.51-1.61-.03-.58-.02-1.17-.02-1.75,0-15.97-.02-31.93-.03-47.9,0-2.28.94-3.78,2.72-4.41,2.15-.76,4.53,1.23,4.54,3.82.02,2.79,0,5.58,0,8.38v16.68h0Z"/>
    <path class="cls-1" d="M87.61,4.81c-.01,2.6-2.18,4.69-4.86,4.69-2.67,0-4.87-2.17-4.87-4.77,0-2.3,1.87-4.62,4.89-4.71,2.67-.08,4.85,2.16,4.84,4.79"/>
  </g>
</svg>